<svg xmlns="http://www.w3.org/2000/svg" xmlns:xlink="http://www.w3.org/1999/xlink" width="59" height="38" viewBox="0 0 59 38">
  <defs>
    <clipPath id="clip-Git-search">
      <rect width="59" height="38"/>
    </clipPath>
  </defs>
  <g id="Git-search" clip-path="url(#clip-Git-search)">
    <g id="Group_14" data-name="Group 14" transform="translate(-47 -32)">
      <g id="Group_10" data-name="Group 10">
        <path id="Icon_awesome-git" data-name="Icon awesome-git" d="M15.208,11.137H9.633C6.82,10.4.458,10.591.458,16.4a4.56,4.56,0,0,0,2.461,4.289c-1.765,1.617-2.6,2.38-2.6,3.46A1.9,1.9,0,0,0,1.575,26.03,3.688,3.688,0,0,0,0,28.944c0,2.258,1.972,3.573,7.146,3.573,4.975,0,7.86-1.858,7.86-5.145,0-4.125-3.175-3.973-10.661-4.43l.944-1.515c1.917.533,8.346.7,8.346-4.774a4.549,4.549,0,0,0-1.055-2.888l2.63-.2ZM10.749,28.145c0,2.254-7.375,2.257-7.375.171A2.54,2.54,0,0,1,4.117,26.8C9.581,27.174,10.749,27.039,10.749,28.145ZM7.176,18.683c-3.713,0-3.548-5,.084-5A2.508,2.508,0,1,1,7.176,18.683Zm9.373,7.067V23.493c1.881-.257,1.915-.141,1.915-.773v-8.4c0-.6-.144-.519-1.915-1.143l.314-2.315h5.918V22.721c0,.458.028.515.458.572l1.458.2V25.75ZM20.237,8.572A2.348,2.348,0,0,1,17.664,6a2.3,2.3,0,0,1,2.573-2.515A2.314,2.314,0,0,1,22.838,6,2.357,2.357,0,0,1,20.237,8.572ZM36,24.642a11.434,11.434,0,0,1-4.66,1.143c-3.4,0-4.688-1.371-4.688-4.6V13.693c0-.381.074-.285-2.23-.285V10.863c2.516-.286,3.516-1.547,3.83-4.66h2.716c0,4.629-.094,4.346.229,4.346h4.029v2.858H30.968v6.831c0,.487-.346,3.615,4.259,1.887Z" transform="translate(47.1 33)"/>
        <path id="Icon_material-search" data-name="Icon material-search" d="M21.308,19.291H20.246l-.376-.363a8.753,8.753,0,1,0-.941.941l.363.376v1.062l6.723,6.71,2-2Zm-8.068,0a6.051,6.051,0,1,1,6.051-6.051A6.043,6.043,0,0,1,13.24,19.291Z" transform="translate(77.5 37.5)"/>
      </g>
    </g>
  </g>
</svg>
